<svg data-v-423bf9ae="" xmlns="http://www.w3.org/2000/svg" viewBox="0 0 313.2944591336652 185" class="iconAbove"><!----><!----><!----><g data-v-423bf9ae="" id="4a69ddb0-b34d-48fe-b308-a28fc5ae8a03" fill="#000000" transform="matrix(5.830903811703725,0,0,5.830903811703725,-3.440232981259072,98.21368519070631)"><path d="M9.77 9.62C9.77 6.57 8.22 4.47 5.18 4.47C2.14 4.47 0.59 6.57 0.59 9.62C0.59 12.66 2.14 14.76 5.18 14.76C8.22 14.76 9.77 12.66 9.77 9.62ZM2.09 9.62C2.09 7.17 3.09 5.21 5.18 5.21C7.27 5.21 8.27 7.17 8.27 9.62C8.27 12.05 7.27 14.01 5.18 14.01C3.09 14.01 2.09 12.05 2.09 9.62ZM10.86 8.32L11.93 8.54C11.93 8.54 12.07 9.32 12.07 9.60L12.07 12.70C12.04 13.02 11.93 13.69 11.93 13.69L10.86 13.92L10.93 14.62C10.93 14.62 12.21 14.55 12.49 14.55C13.61 14.55 14.29 14.62 14.29 14.62L14.39 13.79L13.30 13.69C13.30 13.69 13.20 12.91 13.20 12.21L13.20 10.71C13.22 9.34 13.89 8.36 14.99 8.36C16.17 8.36 16.44 9.51 16.44 10.68L16.44 12.63C16.44 12.98 16.37 13.38 16.30 13.69L15.36 13.92L15.43 14.62C15.43 14.62 16.58 14.55 16.86 14.55C17.98 14.55 18.66 14.62 18.66 14.62L18.76 13.79L17.67 13.69C17.67 13.69 17.57 12.91 17.57 12.21L17.57 10.68C17.57 8.75 17.14 7.50 15.20 7.50C14.14 7.50 13.41 8.13 13.08 8.78L12.99 7.88L12.73 7.63L12.22 7.63C11.94 7.63 10.93 7.57 10.93 7.57ZM23.13 4.61C23.13 4.61 22.33 4.68 21.21 4.68C20.93 4.68 19.59 4.61 19.59 4.61L19.52 5.36L20.59 5.53C20.62 5.71 20.72 6.36 20.72 6.59L20.72 12.63C20.72 12.87 20.62 13.51 20.59 13.69L19.49 13.92L19.56 14.62C19.56 14.62 20.93 14.55 21.21 14.55L24.16 14.55C24.44 14.55 25.76 14.60 25.76 14.60L26.03 14.35L26.24 12.24L25.47 12.17C25.44 12.39 25.31 12.89 25.26 13.10C25.24 13.20 25.10 13.43 24.96 13.62C24.65 13.68 24.18 13.75 23.74 13.75L22.09 13.75C22.06 13.54 21.99 12.78 21.99 12.21L21.99 7.01C21.99 6.43 22.06 5.73 22.09 5.53L23.18 5.43ZM29.71 7.50C27.65 7.50 26.66 9.02 26.66 11.12C26.66 13.23 27.76 14.69 29.88 14.69C31.46 14.69 32.35 13.85 32.35 13.85L31.96 13.20C31.96 13.20 31.07 13.78 29.88 13.78C28.62 13.78 28.01 12.49 27.97 11.23L32.16 11.23L32.40 10.77C32.40 8.81 31.67 7.50 29.71 7.50ZM29.65 8.23C30.65 8.23 31.11 9.02 31.11 10.01C31.11 10.08 31.09 10.29 31.09 10.29L27.99 10.53C28.08 9.37 28.50 8.23 29.65 8.23ZM37.87 14.55C38.99 14.55 39.68 14.62 39.68 14.62L39.77 13.79L38.81 13.69C38.81 13.69 38.67 12.91 38.67 12.21L38.67 10.47C38.67 8.33 38.02 7.50 36.36 7.50C35.52 7.50 34.66 7.62 33.82 7.84L33.98 9.74L34.79 9.70L34.79 9.13L34.89 8.54C35.24 8.37 35.76 8.26 36.22 8.26C37.10 8.26 37.53 8.89 37.53 10.19L37.53 10.65L35.29 11.03C34.03 11.24 33.42 11.89 33.42 12.89C33.42 13.99 34.20 14.69 35.45 14.69C36.36 14.69 37.31 14.15 37.67 13.44ZM37.53 11.37L37.53 12.21C37.39 13.12 36.61 13.79 35.67 13.79C35.01 13.79 34.65 13.38 34.65 12.68C34.65 12.19 34.97 11.84 35.53 11.75ZM42.64 7.88L42.38 7.63L41.87 7.63C41.59 7.63 40.59 7.57 40.59 7.57L40.52 8.32L41.58 8.54C41.58 8.54 41.72 9.32 41.72 9.60L41.72 12.63C41.72 12.91 41.58 13.69 41.58 13.69L40.52 13.92L40.59 14.62C40.59 14.62 41.86 14.55 42.14 14.55C43.26 14.55 44.23 14.62 44.23 14.62L44.32 13.79L42.95 13.69C42.95 13.69 42.85 12.91 42.85 12.21L42.85 10.57C42.91 9.25 43.44 8.48 44.73 8.47L44.79 8.47C44.88 8.76 44.98 9.09 44.98 9.17L44.98 9.91L45.79 9.95L45.93 7.64C45.93 7.64 45.50 7.50 44.98 7.50C43.97 7.50 43.27 7.91 42.73 8.81ZM46.42 8.32L47.49 8.54C47.49 8.54 47.63 9.32 47.63 9.60L47.63 12.70C47.60 13.02 47.49 13.69 47.49 13.69L46.42 13.92L46.49 14.62C46.49 14.62 47.77 14.55 48.05 14.55C49.17 14.55 49.85 14.62 49.85 14.62L49.95 13.79L48.86 13.69C48.86 13.69 48.76 12.91 48.76 12.21L48.76 10.71C48.78 9.34 49.45 8.36 50.55 8.36C51.73 8.36 52.00 9.51 52.00 10.68L52.00 12.63C52.00 12.98 51.93 13.38 51.86 13.69L50.92 13.92L50.99 14.62C50.99 14.62 52.14 14.55 52.42 14.55C53.54 14.55 54.22 14.62 54.22 14.62L54.32 13.79L53.23 13.69C53.23 13.69 53.13 12.91 53.13 12.21L53.13 10.68C53.13 8.75 52.70 7.50 50.76 7.50C49.70 7.50 48.97 8.13 48.64 8.78L48.55 7.88L48.29 7.63L47.78 7.63C47.50 7.63 46.49 7.57 46.49 7.57Z"></path></g><defs data-v-423bf9ae=""><linearGradient data-v-423bf9ae="" gradientTransform="rotate(25)" id="3791c0a2-078f-4f9d-8b0c-994edf11284e" x1="0%" y1="0%" x2="100%" y2="0%"><stop data-v-423bf9ae="" offset="0%" style="stop-color: rgb(10, 55, 50); stop-opacity: 1;"></stop><stop data-v-423bf9ae="" offset="100%" style="stop-color: rgb(85, 195, 136); stop-opacity: 1;"></stop></linearGradient></defs><g data-v-423bf9ae="" id="45bc0520-7466-4238-b465-0116b02ffd5b" transform="matrix(1.1119444105360243,0,0,1.1119444105360243,101.9587516784668,0.36947906393470475)" stroke="none" fill="url(#3791c0a2-078f-4f9d-8b0c-994edf11284e)"><switch><g><path d="M18.385 69.157h69.23V15.31s0-15.385-15.384-15.385H3v53.847c0-.001 0 15.385 15.385 15.385zM10.693 7.618h53.845c15.385 0 15.385 15.385 15.385 15.385v38.462H26.077c-15.384 0-15.384-15.385-15.384-15.385V7.618zM80.467 77H4v7.542S3.542 100 18.927 100H96v-7.766S95.851 77 80.467 77zm-62.522 7h-3.878s-3.309 0-3.309-3H80.319s3.307 0 3.307 3H17.945z"></path></g></switch></g><!----></svg>